<svg xmlns="http://www.w3.org/2000/svg" viewBox="0 0 1366 768"><defs><style>.cls-1{fill:#123740;}.cls-2{font-size:250.98px;fill:#f1802d;font-family:SFAtarianSystemBold, SF Atarian System;}.cls-3{fill:#37f265;}.cls-4{fill:#383838;}.cls-5{fill:none;stroke:#000;stroke-miterlimit:10;}.cls-6,.cls-8,.cls-9{fill:#fff;}.cls-7{opacity:0.2;}.cls-8{opacity:0.18;}.cls-9{opacity:0.21;}</style></defs><g id="Capa_1" data-name="Capa 1"><rect class="cls-1" width="1366" height="768"/></g><g id="Capa_10" data-name="Capa 10"><text class="cls-2" transform="matrix(0.69, -0.73, 0.73, 0.69, 183.45, 413.92)">M</text><text class="cls-2" transform="matrix(0.86, -0.51, 0.51, 0.86, 290, 308.82)">y</text><text class="cls-2" transform="translate(354.34 270.71) rotate(-23.83)"> </text><text class="cls-2" transform="translate(406.26 245.81) rotate(-16.44)">S</text><text class="cls-2" transform="translate(509.96 216.13) rotate(-9.42)">t</text><text class="cls-2" transform="translate(568.91 205.49) rotate(-4.86)">a</text><text class="cls-2" transform="translate(636.52 199.26) rotate(-0.57)">t</text><text class="cls-2" transform="matrix(1, 0.09, -0.09, 1, 710.37, 197.94)">s</text><text class="cls-2" transform="translate(800.59 206.49) rotate(10.46)"> </text><text class="cls-2" transform="translate(858.17 215.53) rotate(16.8)">J</text><text class="cls-2" transform="matrix(0.9, 0.44, -0.44, 0.9, 955.21, 243.68)">S</text><text class="cls-2" transform="matrix(0.78, 0.62, -0.62, 0.78, 1049.27, 289.34)">O</text><text class="cls-2" transform="matrix(0.57, 0.82, -0.82, 0.57, 1122.99, 343.38)">N</text></g><g id="Capa_9" data-name="Capa 9"><path class="cls-3" d="M905,578.5c4.91,5.06,8.52,13.14,6.4,26.09,0,0-5.43,24.63-31,26.67,0,0-42.75,90.16-114.46,83a338.84,338.84,0,0,0-22.43-54.25l.11-.07s52.54,35.79,119.66-35.16c0,0-16.74-36.54,13-50.57C885.88,569.72,897.56,570.87,905,578.5Z"/><path class="cls-3" d="M636.13,623.67c-36.5-23.21-83.64-72.52-93.84-174.32,0,0-22.1-190,137.15-190S819.68,438,819.68,438s-1.75,124.61-98.15,185.67a195.94,195.94,0,0,1-40.71,19.53S661,639.45,636.13,623.67ZM779.35,473.09c12.24-29.77,6.14-60.46-13.58-68.58s-45.66,9.49-57.9,39.26-6.14,60.46,13.62,68.58S767.14,502.89,779.35,473.09ZM644.21,512.35c19.76-8.12,25.82-38.81,13.62-68.58s-38.14-47.33-57.9-39.26-25.82,38.81-13.58,68.58S624.49,520.42,644.21,512.35Z"/><path class="cls-3" d="M766,714.31c21.36,67.65,15.11,120.75,15.11,120.75a96.49,96.49,0,0,1-3.94,17.52c-8,25.79-31.41,70.77-97.68,69.88-62.51-.86-86.06-42.53-94.8-69.62v0a109.26,109.26,0,0,1-5-22.81c-6.55-35.09,5.51-82.68,20.13-123.35,7.48-20.8,15.63-39.78,22.33-54.29,7.88-17.19,13.73-28.17,14-28.69,24.82,15.78,44.69,19.5,44.69,19.5a195.94,195.94,0,0,0,40.71-19.53A335.27,335.27,0,0,1,766,714.31Z"/><path class="cls-4" d="M765.77,404.51c19.72,8.12,25.82,38.81,13.58,68.58s-38.14,47.33-57.86,39.26-25.82-38.81-13.62-68.58S746,396.44,765.77,404.51Z"/><path class="cls-4" d="M657.83,443.77c12.2,29.77,6.14,60.46-13.62,68.58s-45.66-9.46-57.86-39.26-6.14-60.46,13.58-68.58S645.58,414,657.83,443.77Z"/><path class="cls-3" d="M622.07,652.36h0c-6.7,14.51-14.85,33.49-22.33,54.29-71.74,7.14-114.49-83-114.49-83-25.6-2-31-26.72-31-26.72-2.12-12.91,1.49-21,6.43-26,7.45-7.62,19.17-8.81,28.77-4.24,29.69,14,12.94,50.57,12.94,50.57C569.53,688.12,622.07,652.36,622.07,652.36Z"/><path class="cls-5" d="M636.13,623.67c-36.5-23.21-83.64-72.52-93.84-174.32,0,0-22.1-190,137.15-190S819.68,438,819.68,438s-1.75,124.61-98.15,185.67a195.94,195.94,0,0,1-40.71,19.53S661,639.45,636.13,623.67Z"/><path class="cls-5" d="M657.83,443.77c12.2,29.77,6.14,60.46-13.62,68.58s-45.66-9.46-57.86-39.26-6.14-60.46,13.58-68.58S645.58,414,657.83,443.77Z"/><path class="cls-5" d="M707.87,443.77c-12.2,29.77-6.14,60.46,13.62,68.58s45.65-9.46,57.86-39.26,6.14-60.46-13.58-68.58S720.11,414,707.87,443.77Z"/><path class="cls-5" d="M584.64,852.84c8.74,27.09,32.29,68.76,94.8,69.62,66.27.89,89.71-44.09,97.68-69.88a96.49,96.49,0,0,0,3.94-17.52S787.31,782,766,714.31a335.27,335.27,0,0,0-44.42-90.67"/><path class="cls-5" d="M636.13,623.64v0c-.29.52-6.14,11.5-14,28.69-6.7,14.51-14.85,33.49-22.33,54.29C585.16,747.32,573.1,794.91,579.65,830a109.26,109.26,0,0,0,5,22.81"/><path class="cls-5" d="M622.07,652.36S569.53,688.12,502.4,617.2c0,0,16.75-36.58-12.94-50.57-9.6-4.57-21.32-3.38-28.77,4.24-4.94,5-8.55,13.14-6.43,26,0,0,5.43,24.67,31,26.72,0,0,42.75,90.15,114.49,83"/><path class="cls-5" d="M743.63,660s52.54,35.79,119.66-35.16c0,0-16.74-36.54,13-50.57,9.64-4.54,21.32-3.39,28.8,4.24,4.91,5.06,8.52,13.14,6.4,26.09,0,0-5.43,24.63-31,26.67,0,0-42.75,90.16-114.46,83h0"/><path class="cls-6" d="M601.8,418.89a24,24,0,0,0-6,24.74,2.56,2.56,0,0,0,3.07,1.75,2.53,2.53,0,0,0,1.75-3.08,19,19,0,0,1,4.73-19.87c2.33-2.23-1.21-5.76-3.54-3.54Z"/><path class="cls-6" d="M758.28,421.77a16.05,16.05,0,0,1,6,18.1,2.5,2.5,0,0,0,4.83,1.33,21.09,21.09,0,0,0-8.28-23.74,2.5,2.5,0,1,0-2.52,4.31Z"/><path class="cls-7" d="M679.87,629.22c-21.29-3.29-90-51.93-90-51.93,10.15,27.63,70.11,58.43,86.83,67a18.77,18.77,0,0,1,4.61-.57c.24,0,.47,0,.71,0,1.62-.82,3.23-1.66,4.86-2.46a17.27,17.27,0,0,1,6.77-2.57,16,16,0,0,1,8.67-4.35,16.48,16.48,0,0,1,12.5-5.49c35-23.6,56.47-51.24,56.47-51.24S701.17,632.52,679.87,629.22Z"/><path class="cls-8" d="M555.58,345.15S614.23,277.5,679.87,277s126.78,68.14,126.78,68.14-19.58-85.88-126.12-85.24S555.58,345.15,555.58,345.15Z"/><path class="cls-9" d="M766.58,724.44a87.53,87.53,0,0,0-3-11.36c-1.15-3.57-2.19-7.16-3.31-10.74-1-3.33-3.07-6.17-4.25-9.45a1.57,1.57,0,0,1,0-1.09c-.81-2.12-1.76-4.18-2.71-6.24-1.11-2.4-2.06-4.86-3.18-7.25-2.32-4.93-5.14-9.61-7.37-14.58a1.76,1.76,0,0,1-.11-.74c-.69-1.28-1.36-2.57-2.1-3.81a64.43,64.43,0,0,1-3.84-8.41A44.08,44.08,0,0,0,734,645.5a33,33,0,0,0-2.08-2.61,2,2,0,0,1-.5-1.52c-1.94-2.89-4-5.7-6-8.52a1.83,1.83,0,0,1-.31-.73,18.12,18.12,0,0,1-1.7-2.71,18.3,18.3,0,0,1-1.68-2.51,10.25,10.25,0,0,1-.62-.85,14.71,14.71,0,0,1-2.06,1.15,16.47,16.47,0,0,1-4.66,2.65,16.14,16.14,0,0,1-4.78,2.63,155.72,155.72,0,0,1-9.7,4.84c-.51.28-1,.57-1.57.81a16.7,16.7,0,0,1-4,1.71,16.18,16.18,0,0,1-3.79,1.54,17.09,17.09,0,0,1-4.73,1.85,2.1,2.1,0,0,1-1.14.45l.12,0s0,0-.11,0l-.33.14a6,6,0,0,1-.68.23c-.45.12-.9.23-1.35.38a5.56,5.56,0,0,1-3.23.17c-.47-.12-.92-.29-1.38-.4s-1-.21-1.55-.35-.87-.24-1.3-.39c-.06,0-.72-.22-.4-.15-.35-.08-.71-.09-1.06-.17a1.35,1.35,0,0,1-.45-.22,17.61,17.61,0,0,1-4-1.38,17.38,17.38,0,0,1-4.68-1.64,15.76,15.76,0,0,1-2.42-1,16.43,16.43,0,0,1-3.87-1.66,351.72,351.72,0,0,0-7.42-3.21,16.26,16.26,0,0,1-3.25-1.81,16,16,0,0,1-2.76-1.53,15.69,15.69,0,0,1-4-2.21,15.72,15.72,0,0,0-1.16-.71,1.62,1.62,0,0,1-1-.55,16.55,16.55,0,0,1-1.78-1,1.79,1.79,0,0,1-.36.68s0,0,0,.07a1.91,1.91,0,0,1-.53,1.07,1.71,1.71,0,0,1-.29.59,2,2,0,0,1-.18.32,1.87,1.87,0,0,1-.4.84,2.1,2.1,0,0,1-.34.5,1.76,1.76,0,0,1-.82,1.17,1.9,1.9,0,0,1-.41,1.47,34.85,34.85,0,0,0-4.19,7.94c-.92,2.13-2,4.16-3,6.2a1.84,1.84,0,0,1-.18.61c-2.34,4.54-3.7,9.5-6,14.06-1,2-2.25,4-3.25,6.11a15.42,15.42,0,0,1-1.34,3.58,1.41,1.41,0,0,1-.75.69c-.16.57-.36,1.13-.48,1.71a1.53,1.53,0,0,1-.39.72,41.61,41.61,0,0,1-3.7,10.47q-1.83,3.78-3.49,7.6a48.13,48.13,0,0,1-3.28,9.38c-.85,2-1.73,4-2.66,6-.67,1.93-1.33,3.85-2,5.79-1,2.91-1.61,6.49-3.22,9.25-.38,1.15-.75,2.31-1.16,3.45,9.78-15.35,46.61-68.89,85-69.43,36.94-.52,75.07,49.81,87.3,67.48C766.59,724.52,766.59,724.48,766.58,724.44Z"/></g></svg>