<svg xmlns="http://www.w3.org/2000/svg" viewBox="0 0 1366 970.5"><defs><style>.cls-1{fill:#123740;}.cls-2{fill:#37f265;}.cls-3{fill:#383838;}.cls-4{fill:none;stroke:#000;stroke-miterlimit:10;}.cls-5,.cls-7,.cls-8{fill:#fff;}.cls-6{opacity:0.2;}.cls-7{opacity:0.18;}.cls-8,.cls-9{opacity:0.21;}.cls-10{opacity:0.38;}.cls-11{font-size:346.16px;}.cls-11,.cls-12{fill:#f1802d;font-family:SFAtarianSystemBold, SF Atarian System;}.cls-12{font-size:172.18px;}</style></defs><g id="Capa_1" data-name="Capa 1"><rect class="cls-1" width="1366" height="768"/></g><g id="Capa_4" data-name="Capa 4"><path class="cls-2" d="M1033.08,786.1c66.27.89,89.71-44.09,97.68-69.88l.7.23s18.91,182.39-10.23,205.2c0,0,82.34,5.06,71,36.73-9,25.11-59.61,3.2-80.07-7a20.41,20.41,0,0,1-10.8-13.25c-8.18-31.48-37.65-136.22-68.24-130.26-25.74-1.19-56.22,100.94-64.63,130.9a19.4,19.4,0,0,1-10.12,12.27c-20,10-71.59,32.71-80.74,7.3-11.42-31.67,70.92-36.73,70.92-36.73-28.88-22.58-10.57-201.74-10.2-205.17C947,743.57,970.57,785.25,1033.08,786.1Z"/><path class="cls-2" d="M1119.59,578a338.09,338.09,0,0,0-22.43-54.25l.11,0s52.57,35.76,119.7-35.2c0,0-16.78-36.54,12.91-50.57,9.64-4.54,21.36-3.35,28.8,4.24,4.91,5.06,8.52,13.14,6.4,26.09,0,0-5.39,24.63-31,26.71C1234.05,494.94,1191.3,585.1,1119.59,578Z"/><path class="cls-3" d="M1075.13,376c-19.72-8.11-25.82-38.81-13.58-68.58s38.14-47.33,57.86-39.22S1145.23,307,1133,336.77,1094.89,384.1,1075.13,376Z"/><path class="cls-3" d="M1011.47,307.41c12.24,29.77,6.14,60.47-13.59,68.58s-45.65-9.45-57.89-39.22-6.14-60.5,13.62-68.58S999.22,277.64,1011.47,307.41Z"/><path class="cls-2" d="M1097.16,523.71A338.09,338.09,0,0,1,1119.59,578C1141,645.6,1134.7,698.7,1134.7,698.7a96.49,96.49,0,0,1-3.94,17.52c-8,25.79-31.41,70.77-97.68,69.88-62.51-.85-86.06-42.53-94.77-69.62v0a109.57,109.57,0,0,1-5-22.81c-6.55-35,5.47-82.68,20.09-123.31,7.48-20.8,15.63-39.78,22.29-54.29l0,0c7.88-17.19,13.73-28.16,14-28.68,24.82,15.77,44.69,19.49,44.69,19.49a195.44,195.44,0,0,0,40.71-19.53A338.54,338.54,0,0,1,1097.16,523.71Z"/><path class="cls-2" d="M997.88,376c19.73-8.11,25.83-38.81,13.59-68.58s-38.14-47.33-57.86-39.22S927.78,307,940,336.77,978.13,384.1,997.88,376Zm63.67-68.58c-12.24,29.77-6.14,60.47,13.58,68.58s45.65-9.45,57.9-39.22,6.14-60.5-13.62-68.58S1073.75,277.64,1061.55,307.41ZM895.93,313s-22.1-190,137.15-190,140.28,178.61,140.28,178.61-1.79,124.61-98.19,185.67a195.44,195.44,0,0,1-40.71,19.53s-19.87-3.72-44.69-19.49C953.27,464.1,906.13,414.8,895.93,313Z"/><path class="cls-2" d="M856,480.84c66.09,69.8,118.07,36.24,119.67,35.2-6.66,14.51-14.81,33.49-22.29,54.29-71.74,7.1-114.49-83.05-114.49-83.05-25.6-2-31-26.72-31-26.72-2.09-12.91,1.49-21,6.43-26,7.45-7.63,19.17-8.78,28.8-4.25C872.79,444.26,856,480.84,856,480.84Z"/><path class="cls-4" d="M989.77,487.32C953.27,464.1,906.13,414.8,895.93,313c0,0-22.1-190,137.15-190s140.28,178.61,140.28,178.61-1.79,124.61-98.19,185.67a195.44,195.44,0,0,1-40.71,19.53S1014.59,503.09,989.77,487.32Z"/><path class="cls-4" d="M1011.47,307.41c12.24,29.77,6.14,60.47-13.59,68.58s-45.65-9.45-57.89-39.22-6.14-60.5,13.62-68.58S999.22,277.64,1011.47,307.41Z"/><path class="cls-4" d="M1061.55,307.41c-12.24,29.77-6.14,60.47,13.58,68.58s45.65-9.45,57.9-39.22,6.14-60.5-13.62-68.58S1073.75,277.64,1061.55,307.41Z"/><path class="cls-4" d="M938.31,716.48c8.71,27.09,32.26,68.77,94.77,69.62,66.27.89,89.71-44.09,97.68-69.88a96.49,96.49,0,0,0,3.94-17.52S1141,645.6,1119.59,578a335.57,335.57,0,0,0-44.42-90.68"/><path class="cls-4" d="M975.71,516c-6.66,14.51-14.81,33.49-22.29,54.29C938.8,611,926.78,658.59,933.33,693.64a109.57,109.57,0,0,0,5,22.81"/><path class="cls-4" d="M989.77,487.28v0c-.29.52-6.14,11.49-14,28.68"/><path class="cls-4" d="M938.31,716.45v0c-.37,3.43-18.68,182.59,10.2,205.17,0,0-82.34,5.06-70.92,36.73,9.15,25.41,60.76,2.68,80.74-7.3a19.4,19.4,0,0,0,10.12-12.27c8.41-30,38.89-132.09,64.63-130.9l.45,0"/><path class="cls-4" d="M1131.46,716.45s18.91,182.39-10.23,205.2c0,0,82.34,5.06,71,36.73-9,25.11-59.61,3.2-80.07-7a20.41,20.41,0,0,1-10.8-13.25c-8.18-31.48-37.65-136.22-68.24-130.26l-.14,0"/><path class="cls-4" d="M975.75,516l0,0c-1.6,1-53.58,34.6-119.67-35.2,0,0,16.75-36.58-12.91-50.57-9.63-4.53-21.35-3.38-28.8,4.25-4.94,5-8.52,13.13-6.43,26,0,0,5.43,24.67,31,26.72,0,0,42.75,90.15,114.49,83.05"/><path class="cls-4" d="M1097.27,523.67s52.57,35.76,119.7-35.2c0,0-16.78-36.54,12.91-50.57,9.64-4.54,21.36-3.35,28.8,4.24,4.91,5.06,8.52,13.14,6.4,26.09,0,0-5.39,24.63-31,26.71,0,0-42.75,90.16-114.46,83"/><path class="cls-5" d="M955.45,282.54a24,24,0,0,0-6,24.74,2.57,2.57,0,0,0,3.07,1.75,2.53,2.53,0,0,0,1.75-3.08A19,19,0,0,1,959,286.07c2.33-2.22-1.21-5.75-3.54-3.53Z"/><path class="cls-5" d="M1111.93,285.42a16.07,16.07,0,0,1,6,18.1,2.52,2.52,0,0,0,1.74,3.08,2.56,2.56,0,0,0,3.08-1.75,21.11,21.11,0,0,0-8.28-23.75,2.5,2.5,0,1,0-2.52,4.32Z"/><path class="cls-6" d="M1033.52,492.87c-21.29-3.3-90-51.93-90-51.93,10.15,27.63,70.11,58.43,86.83,67a18.77,18.77,0,0,1,4.61-.57c.24,0,.47,0,.71,0,1.62-.82,3.23-1.66,4.86-2.46a17.58,17.58,0,0,1,6.77-2.57,16.1,16.1,0,0,1,8.67-4.34,16.48,16.48,0,0,1,12.5-5.49c34.95-23.61,56.47-51.25,56.47-51.25S1054.82,496.17,1033.52,492.87Z"/><path class="cls-7" d="M909.23,208.8s58.65-67.65,124.29-68.15S1160.3,208.8,1160.3,208.8s-19.58-85.88-126.12-85.25S909.23,208.8,909.23,208.8Z"/><path class="cls-8" d="M1120.23,588.09a87.11,87.11,0,0,0-3-11.36c-1.15-3.57-2.19-7.17-3.31-10.75-1-3.33-3.07-6.17-4.25-9.44a1.57,1.57,0,0,1,0-1.09c-.81-2.12-1.76-4.18-2.71-6.24-1.11-2.4-2.06-4.87-3.18-7.26-2.32-4.93-5.14-9.61-7.37-14.57a1.78,1.78,0,0,1-.11-.74c-.69-1.28-1.36-2.58-2.1-3.81a64,64,0,0,1-3.84-8.42,44.71,44.71,0,0,0-2.66-5.26,33,33,0,0,0-2.08-2.61,2,2,0,0,1-.5-1.52c-1.94-2.89-4-5.7-6-8.52a1.89,1.89,0,0,1-.31-.73,18.64,18.64,0,0,1-1.7-2.71,17.47,17.47,0,0,1-1.67-2.52,8.36,8.36,0,0,1-.63-.84,15.8,15.8,0,0,1-2.06,1.15,16.21,16.21,0,0,1-4.66,2.64,15.7,15.7,0,0,1-4.78,2.63,16.29,16.29,0,0,1-4.34,2.28,16.76,16.76,0,0,1-5.36,2.57c-.51.28-1,.57-1.57.81a16.7,16.7,0,0,1-4,1.71,16.16,16.16,0,0,1-3.79,1.53,17.42,17.42,0,0,1-4.73,1.86,2,2,0,0,1-1.14.44h.12l-.11,0-.33.14c-.23.09-.45.16-.68.23-.45.12-.9.23-1.35.37a5.64,5.64,0,0,1-3.23.18c-.47-.12-.92-.29-1.38-.4s-1-.21-1.55-.35-.87-.25-1.3-.39c-.06,0-.72-.23-.4-.16-.35-.07-.71-.08-1.06-.16a1.71,1.71,0,0,1-.45-.22,17.14,17.14,0,0,1-4-1.39,17.49,17.49,0,0,1-4.68-1.63,18,18,0,0,1-2.42-1,363.66,363.66,0,0,1-6.75-2.93,16.72,16.72,0,0,1-4.54-1.94,16.26,16.26,0,0,1-3.25-1.81,1455.08,1455.08,0,0,0-6.79-3.75,1.48,1.48,0,0,1-.56-.35,1.66,1.66,0,0,1-.6-.36,1.61,1.61,0,0,1-.95-.54,18.41,18.41,0,0,1-1.78-1,1.79,1.79,0,0,1-.36.68s0,.05,0,.07a1.85,1.85,0,0,1-.53,1.06,1.67,1.67,0,0,1-.29.6,2,2,0,0,1-.18.32,1.79,1.79,0,0,1-.4.83,1.89,1.89,0,0,1-.34.51,1.74,1.74,0,0,1-.82,1.16,1.91,1.91,0,0,1-.41,1.48,34.65,34.65,0,0,0-4.19,7.94c-.92,2.12-2,4.16-3,6.2a1.84,1.84,0,0,1-.18.61c-2.34,4.54-3.7,9.5-6,14.06-1,2-2.25,4-3.25,6.11a16,16,0,0,1-1.33,3.58,1.44,1.44,0,0,1-.76.68c-.16.58-.36,1.14-.48,1.72a1.53,1.53,0,0,1-.39.72,41.75,41.75,0,0,1-3.7,10.47c-1.22,2.52-2.37,5.05-3.49,7.6a47.81,47.81,0,0,1-3.28,9.37c-.85,2-1.73,4.06-2.66,6.06-.67,1.93-1.33,3.85-2,5.79-1,2.91-1.61,6.49-3.22,9.25-.38,1.15-.75,2.31-1.16,3.45,9.78-15.35,46.61-68.89,85-69.43,36.94-.53,75.07,49.81,87.3,67.47C1120.24,588.17,1120.24,588.13,1120.23,588.09Z"/><path class="cls-9" d="M958.39,753.57s73,46.32,152.52,0c0,0-31,33.8-76.26,31.27S978.69,769.17,958.39,753.57Z"/><g class="cls-10"><path class="cls-5" d="M906.4,934.48c-7.53,1-16.58,2.23-21.61,8.64-3.91,5-5.07,13.35.35,17.75,1.24,1,3-.75,1.77-1.77-4.6-3.72-3.32-10.93.25-14.94,4.7-5.28,12.64-6.3,19.24-7.18,1.57-.21,1.59-2.71,0-2.5Z"/></g><g class="cls-10"><path class="cls-5" d="M1162.2,937c6.6.88,14.54,1.9,19.24,7.18,3.57,4,4.84,11.21.25,14.94-1.25,1,.52,2.78,1.76,1.77,5.43-4.4,4.27-12.77.36-17.75-5-6.41-14.08-7.64-21.61-8.64-1.59-.21-1.58,2.29,0,2.5Z"/></g></g><g id="Capa_3" data-name="Capa 3"><text class="cls-11" transform="translate(46.05 402.91)">Player</text><text class="cls-12" transform="translate(478.68 575.04)">JSON</text></g></svg>