<svg xmlns="http://www.w3.org/2000/svg" viewBox="0 0 1366 972.34"><defs><style>.cls-1{fill:#123740;}.cls-2{fill:#37f265;}.cls-3{fill:#383838;}.cls-14,.cls-4{fill:none;stroke-miterlimit:10;}.cls-4{stroke:#000;}.cls-5,.cls-7,.cls-8{fill:#fff;}.cls-6{opacity:0.2;}.cls-7{opacity:0.18;}.cls-8,.cls-9{opacity:0.21;}.cls-10{opacity:0.38;}.cls-11{fill:#e2574c;}.cls-12{fill:#bf392c;}.cls-13{fill:#efc75e;}.cls-14{stroke:#d7b354;stroke-width:5px;}.cls-15{font-size:318.22px;}.cls-15,.cls-16{fill:#f1802d;font-family:SFAtarianSystemBold, SF Atarian System;}.cls-16{font-size:172.18px;}</style></defs><g id="Capa_1" data-name="Capa 1"><rect class="cls-1" width="1366" height="768"/></g><g id="Capa_5" data-name="Capa 5"><path class="cls-2" d="M404.23,923.5s82.35,5.06,71,36.73c-9.08,25.12-59.61,3.16-80.07-7A20.54,20.54,0,0,1,384.29,940c-8.15-31.48-37.62-136.23-68.21-130.27-25.74-1.19-56.22,100.94-64.63,130.9a19.52,19.52,0,0,1-10.12,12.28c-20,9.93-71.59,32.7-80.74,7.29-11.42-31.67,70.92-36.73,70.92-36.73-28.73-22.47-10.75-199.92-10.2-205.09,8.75,27.09,32.34,68.69,94.77,69.54,66.27.9,89.72-44.09,97.68-69.87l.7.22S433.37,900.7,404.23,923.5Z"/><path class="cls-2" d="M380.27,525.48s52.54,35.8,119.7-35.16c0,0-16.78-36.54,12.91-50.57,9.64-4.54,21.36-3.38,28.8,4.25,4.91,5.06,8.52,13.13,6.4,26.08,0,0-5.39,24.63-31,26.68,0,0-42.75,90.19-114.45,83a338.17,338.17,0,0,0-22.44-54.25Z"/><path class="cls-2" d="M272.77,489.17c-36.5-23.22-83.64-72.52-93.84-174.33,0,0-22.1-190,137.15-190s140.28,178.6,140.28,178.6-1.78,124.61-98.19,185.67a195.44,195.44,0,0,1-40.71,19.53S297.59,504.94,272.77,489.17ZM416,338.58c12.2-29.76,6.1-60.46-13.62-68.57s-45.66,9.49-57.86,39.25-6.14,60.47,13.58,68.58S403.79,368.35,416,338.58ZM280.85,377.84c19.76-8.11,25.86-38.81,13.62-68.58S256.33,261.93,236.61,270,210.75,308.82,223,338.58,261.13,385.91,280.85,377.84Z"/><path class="cls-2" d="M221.31,718.41a109.67,109.67,0,0,1-5-22.92c-6.55-35.09,5.51-82.68,20.13-123.35,7.48-20.76,15.63-39.74,22.29-54.25l0,0c7.88-17.19,13.73-28.16,14-28.68,24.82,15.77,44.69,19.49,44.69,19.49a195.44,195.44,0,0,0,40.71-19.53,335.93,335.93,0,0,1,44.43,90.68c21.35,67.64,15.1,120.74,15.1,120.74a96.68,96.68,0,0,1-3.94,17.53c-8,25.78-31.41,70.77-97.68,69.87C253.65,787.1,230.06,745.5,221.31,718.41Z"/><path class="cls-3" d="M402.41,270c19.72,8.11,25.82,38.81,13.62,68.57s-38.14,47.33-57.9,39.26S332.31,339,344.55,309.26,382.69,261.93,402.41,270Z"/><path class="cls-3" d="M294.47,309.26c12.24,29.77,6.14,60.47-13.62,68.58s-45.62-9.49-57.86-39.26-6.14-60.46,13.62-68.57S282.22,279.5,294.47,309.26Z"/><path class="cls-2" d="M258.71,517.89c-6.66,14.51-14.81,33.49-22.29,54.25-71.74,7.15-114.49-83-114.49-83-25.6-2.05-31-26.72-31-26.72-2.09-12.91,1.49-21,6.43-26,7.45-7.63,19.17-8.82,28.8-4.24,29.66,14,12.92,50.56,12.92,50.56C205.13,552.5,257.11,518.93,258.71,517.89Z"/><path class="cls-4" d="M272.77,489.17c-36.5-23.22-83.64-72.52-93.84-174.33,0,0-22.1-190,137.15-190s140.28,178.6,140.28,178.6-1.78,124.61-98.19,185.67a195.44,195.44,0,0,1-40.71,19.53S297.59,504.94,272.77,489.17Z"/><path class="cls-4" d="M294.47,309.26c12.24,29.77,6.14,60.47-13.62,68.58s-45.62-9.49-57.86-39.26-6.14-60.46,13.62-68.57S282.22,279.5,294.47,309.26Z"/><path class="cls-4" d="M344.55,309.26c-12.24,29.77-6.14,60.47,13.58,68.58s45.66-9.49,57.9-39.26,6.1-60.46-13.62-68.57S356.75,279.5,344.55,309.26Z"/><path class="cls-4" d="M258.71,517.89c-6.66,14.51-14.81,33.49-22.29,54.25-14.62,40.67-26.68,88.26-20.13,123.35a109.67,109.67,0,0,0,5,22.92c8.75,27.09,32.34,68.69,94.77,69.54,66.27.9,89.72-44.09,97.68-69.87a96.68,96.68,0,0,0,3.94-17.53s6.25-53.1-15.1-120.74a335.93,335.93,0,0,0-44.43-90.68"/><path class="cls-4" d="M272.77,489.13v0c-.29.52-6.14,11.49-14,28.68"/><path class="cls-4" d="M221.31,718.3v.11c-.55,5.17-18.53,182.62,10.2,205.09,0,0-82.34,5.06-70.92,36.73,9.15,25.41,60.76,2.64,80.74-7.29a19.52,19.52,0,0,0,10.12-12.28c8.41-30,38.89-132.09,64.63-130.9a2.27,2.27,0,0,1,.45,0"/><path class="cls-4" d="M414.46,718.3s18.91,182.4-10.23,205.2c0,0,82.35,5.06,71,36.73-9.08,25.12-59.61,3.16-80.07-7A20.54,20.54,0,0,1,384.29,940c-8.15-31.48-37.62-136.23-68.21-130.27l-.14,0"/><path class="cls-4" d="M258.75,517.85l0,0c-1.6,1-53.58,34.61-119.66-35.2,0,0,16.74-36.57-12.92-50.56-9.63-4.58-21.35-3.39-28.8,4.24-4.94,5-8.52,13.13-6.43,26,0,0,5.43,24.67,31,26.72,0,0,42.75,90.16,114.49,83"/><path class="cls-4" d="M380.27,525.48s52.54,35.8,119.7-35.16c0,0-16.78-36.54,12.91-50.57,9.64-4.54,21.36-3.38,28.8,4.25,4.91,5.06,8.52,13.13,6.4,26.08,0,0-5.39,24.63-31,26.68,0,0-42.75,90.19-114.45,83"/><path class="cls-5" d="M238.45,284.38a24,24,0,0,0-6,24.75,2.55,2.55,0,0,0,3.07,1.74,2.52,2.52,0,0,0,1.75-3.07A19,19,0,0,1,242,287.92c2.33-2.22-1.21-5.76-3.54-3.54Z"/><path class="cls-5" d="M394.93,287.27a16,16,0,0,1,6,18.1,2.5,2.5,0,0,0,4.83,1.32A21.09,21.09,0,0,0,397.45,283a2.5,2.5,0,1,0-2.52,4.32Z"/><path class="cls-6" d="M316.52,494.72c-21.29-3.3-90-51.94-90-51.94,10.15,27.63,70.11,58.43,86.83,67a18.3,18.3,0,0,1,4.61-.58c.24,0,.47,0,.71,0,1.62-.82,3.23-1.66,4.86-2.46a17.6,17.6,0,0,1,6.76-2.57,16.18,16.18,0,0,1,8.68-4.35,16.48,16.48,0,0,1,12.5-5.49c34.95-23.6,56.47-51.24,56.47-51.24S337.82,498,316.52,494.72Z"/><path class="cls-7" d="M192.23,210.65S250.88,143,316.52,142.5,443.3,210.65,443.3,210.65s-19.58-85.88-126.12-85.25S192.23,210.65,192.23,210.65Z"/><path class="cls-8" d="M403.23,589.93a87.53,87.53,0,0,0-3-11.36c-1.15-3.57-2.19-7.16-3.31-10.74-1-3.33-3.07-6.17-4.25-9.44a1.57,1.57,0,0,1,0-1.09c-.81-2.13-1.76-4.18-2.72-6.25-1.1-2.4-2.05-4.86-3.17-7.25-2.32-4.93-5.15-9.61-7.37-14.58a1.71,1.71,0,0,1-.11-.73c-.69-1.29-1.36-2.58-2.1-3.81a64.56,64.56,0,0,1-3.84-8.42,44.08,44.08,0,0,0-2.66-5.27,33,33,0,0,0-2.08-2.61,2,2,0,0,1-.5-1.52c-1.94-2.89-4-5.69-6-8.51a1.87,1.87,0,0,1-.31-.74,17.62,17.62,0,0,1-1.7-2.71,16.9,16.9,0,0,1-1.68-2.51c-.2-.29-.45-.54-.62-.84a15.75,15.75,0,0,1-2.06,1.14,16.24,16.24,0,0,1-4.66,2.65,16.26,16.26,0,0,1-4.78,2.63,16.42,16.42,0,0,1-4.34,2.27,16.35,16.35,0,0,1-5.36,2.57,14.53,14.53,0,0,1-1.57.81,17.21,17.21,0,0,1-4,1.72,16.09,16.09,0,0,1-3.78,1.53,17.09,17.09,0,0,1-4.73,1.85,2.1,2.1,0,0,1-1.14.45l.11,0s0,0-.1.05l-.33.14c-.23.08-.45.16-.68.22-.46.12-.9.23-1.35.38a5.59,5.59,0,0,1-3.24.17c-.46-.11-.91-.28-1.37-.39s-1-.21-1.55-.36-.87-.24-1.3-.39c-.06,0-.72-.22-.4-.15-.35-.08-.71-.08-1.06-.16a1.8,1.8,0,0,1-.46-.23,17.21,17.21,0,0,1-3.95-1.38,17.25,17.25,0,0,1-4.68-1.64,16.34,16.34,0,0,1-2.42-1,16.69,16.69,0,0,1-3.87-1.67,16.31,16.31,0,0,1-2.88-1.27,42.45,42.45,0,0,1-7.79-3.74,16.71,16.71,0,0,1-2.76-1.53,15.85,15.85,0,0,1-4-2.22,1.77,1.77,0,0,1-.56-.35,1.81,1.81,0,0,1-.6-.36,1.66,1.66,0,0,1-1-.54,19.3,19.3,0,0,1-1.78-1,1.89,1.89,0,0,1-.36.67s0,.05,0,.07a1.88,1.88,0,0,1-.53,1.07,1.91,1.91,0,0,1-.29.59c0,.13-.13.21-.18.33a1.89,1.89,0,0,1-.4.83,2.1,2.1,0,0,1-.34.5,1.73,1.73,0,0,1-.82,1.17,1.91,1.91,0,0,1-.41,1.48,35.22,35.22,0,0,0-4.2,7.93c-.91,2.13-2,4.16-3,6.2a1.84,1.84,0,0,1-.18.61c-2.34,4.54-3.7,9.5-6,14.06-1,2-2.26,4-3.26,6.12a15,15,0,0,1-1.33,3.57,1.41,1.41,0,0,1-.75.69c-.16.57-.36,1.13-.48,1.72a1.58,1.58,0,0,1-.39.72,41.68,41.68,0,0,1-3.7,10.46q-1.83,3.78-3.49,7.61a48.27,48.27,0,0,1-3.28,9.37c-.85,2-1.73,4.06-2.66,6.06-.67,1.92-1.33,3.85-2,5.79-.95,2.91-1.61,6.48-3.22,9.24-.38,1.16-.75,2.32-1.16,3.46,9.78-15.35,46.61-68.89,85-69.44,36.94-.52,75.07,49.81,87.3,67.48C403.24,590,403.24,590,403.23,589.93Z"/><path class="cls-9" d="M241.39,755.42s73,46.31,152.52,0c0,0-31,33.8-76.26,31.27S261.69,771,241.39,755.42Z"/><g class="cls-10"><path class="cls-5" d="M189.4,936.32c-7.53,1-16.58,2.23-21.61,8.64-3.91,5-5.07,13.36.35,17.76,1.24,1,3-.76,1.77-1.77-4.6-3.73-3.32-10.94.24-14.94,4.71-5.28,12.64-6.31,19.25-7.19,1.57-.2,1.59-2.71,0-2.5Z"/></g><g class="cls-10"><path class="cls-5" d="M445.2,938.82c6.6.89,14.54,1.91,19.24,7.19,3.57,4,4.84,11.21.24,14.94-1.25,1,.53,2.77,1.77,1.77,5.43-4.4,4.27-12.78.36-17.76-5-6.41-14.08-7.63-21.61-8.64-1.59-.21-1.58,2.3,0,2.5Z"/></g></g><g id="Capa_8" data-name="Capa 8"><polygon class="cls-11" points="273 490 297.04 549.76 325.03 542.37 297.9 503 273 490"/><polygon class="cls-12" points="331 504 313 525 330.48 550.82 358 490 331 504"/><circle class="cls-13" cx="315.26" cy="563.87" r="24.13"/><circle class="cls-14" cx="316" cy="564" r="12.5"/></g><g id="Capa_6" data-name="Capa 6"><text class="cls-15" transform="translate(567.31 395.57)">Ranking</text><text class="cls-16" transform="translate(999.93 577.54)">JSON</text></g></svg>